<svg width="41" height="41" viewBox="0 0 41 41" fill="none" xmlns="http://www.w3.org/2000/svg">
<g clip-path="url(#clip0_425_228)">
<path d="M20.5063 13.593C16.6259 13.593 13.496 16.674 13.496 20.4938C13.496 24.3135 16.6259 27.3945 20.5063 27.3945C24.3866 27.3945 27.5165 24.3135 27.5165 20.4938C27.5165 16.674 24.3866 13.593 20.5063 13.593ZM20.5063 24.9801C17.9987 24.9801 15.9487 22.9682 15.9487 20.4938C15.9487 18.0193 17.9926 16.0074 20.5063 16.0074C23.02 16.0074 25.0639 18.0193 25.0639 20.4938C25.0639 22.9682 23.0139 24.9801 20.5063 24.9801ZM29.4384 13.3108C29.4384 14.2056 28.7063 14.9203 27.8033 14.9203C26.8942 14.9203 26.1682 14.1996 26.1682 13.3108C26.1682 12.4219 26.9003 11.7012 27.8033 11.7012C28.7063 11.7012 29.4384 12.4219 29.4384 13.3108ZM34.0814 14.9443C33.9777 12.7882 33.4774 10.8784 31.8728 9.30484C30.2743 7.73131 28.3341 7.23883 26.1438 7.13073C23.8863 7.0046 17.1201 7.0046 14.8627 7.13073C12.6785 7.23282 10.7383 7.7253 9.13367 9.29884C7.52906 10.8724 7.03486 12.7822 6.92504 14.9383C6.79692 17.1605 6.79692 23.821 6.92504 26.0432C7.02876 28.1993 7.52906 30.1091 9.13367 31.6827C10.7383 33.2562 12.6724 33.7487 14.8627 33.8568C17.1201 33.9829 23.8863 33.9829 26.1438 33.8568C28.3341 33.7547 30.2743 33.2622 31.8728 31.6827C33.4713 30.1091 33.9716 28.1993 34.0814 26.0432C34.2095 23.821 34.2095 17.1665 34.0814 14.9443ZM31.1651 28.4275C30.6892 29.6046 29.7679 30.5115 28.566 30.986C26.7661 31.6887 22.4953 31.5265 20.5063 31.5265C18.5173 31.5265 14.2404 31.6827 12.4466 30.986C11.2508 30.5175 10.3295 29.6106 9.84751 28.4275C9.13367 26.6558 9.2984 22.4517 9.2984 20.4938C9.2984 18.5358 9.13977 14.3257 9.84751 12.56C10.3234 11.3829 11.2447 10.476 12.4466 10.0015C14.2465 9.29884 18.5173 9.461 20.5063 9.461C22.4953 9.461 26.7722 9.30484 28.566 10.0015C29.7618 10.47 30.6831 11.3769 31.1651 12.56C31.8789 14.3317 31.7142 18.5358 31.7142 20.4938C31.7142 22.4517 31.8789 26.6618 31.1651 28.4275Z" fill="#F9C922"/>
</g>
<defs>
<clipPath id="clip0_425_228">
<rect width="27.3333" height="30.75" fill="white" transform="translate(6.83356 5.125)"/>
</clipPath>
</defs>
</svg>
