<svg width="21" height="16" viewBox="0 0 21 16" fill="none" xmlns="http://www.w3.org/2000/svg">
<path d="M2.64394 0.799805H18.5439C20.0439 0.799805 20.7999 1.5078 20.7999 2.9478V13.0518C20.7999 14.4798 20.0439 15.1998 18.5439 15.1998H2.64394C1.14394 15.1998 0.387939 14.4798 0.387939 13.0518V2.9478C0.387939 1.5078 1.14394 0.799805 2.64394 0.799805ZM10.5879 11.1198L18.6759 4.4838C18.9639 4.2438 19.1919 3.6918 18.8319 3.1998C18.4839 2.7078 17.8479 2.6958 17.4279 2.9958L10.5879 7.6278L3.75994 2.9958C3.33994 2.6958 2.70394 2.7078 2.35594 3.1998C1.99594 3.6918 2.22394 4.2438 2.51194 4.4838L10.5879 11.1198Z" fill="#F9C922"/>
</svg>
