<svg width="26" height="26" viewBox="0 0 26 26" fill="none" xmlns="http://www.w3.org/2000/svg">
<path d="M12.9999 8.83438C10.7062 8.83438 8.83428 10.7063 8.83428 13C8.83428 15.2938 10.7062 17.1656 12.9999 17.1656C15.2937 17.1656 17.1655 15.2938 17.1655 13C17.1655 10.7063 15.2937 8.83438 12.9999 8.83438ZM25.4937 13C25.4937 11.275 25.5093 9.56563 25.4124 7.84376C25.3155 5.84376 24.8593 4.06876 23.3968 2.60626C21.9312 1.14063 20.1593 0.687508 18.1593 0.590633C16.4343 0.493758 14.7249 0.509383 13.003 0.509383C11.278 0.509383 9.56865 0.493758 7.84678 0.590633C5.84678 0.687508 4.07178 1.14376 2.60928 2.60626C1.14365 4.07188 0.690529 5.84376 0.593654 7.84376C0.496779 9.56876 0.512404 11.2781 0.512404 13C0.512404 14.7219 0.496779 16.4344 0.593654 18.1563C0.690529 20.1563 1.14678 21.9313 2.60928 23.3938C4.0749 24.8594 5.84678 25.3125 7.84678 25.4094C9.57178 25.5063 11.2812 25.4906 13.003 25.4906C14.728 25.4906 16.4374 25.5063 18.1593 25.4094C20.1593 25.3125 21.9343 24.8563 23.3968 23.3938C24.8624 21.9281 25.3155 20.1563 25.4124 18.1563C25.5124 16.4344 25.4937 14.725 25.4937 13ZM12.9999 19.4094C9.45303 19.4094 6.59053 16.5469 6.59053 13C6.59053 9.45313 9.45303 6.59063 12.9999 6.59063C16.5468 6.59063 19.4093 9.45313 19.4093 13C19.4093 16.5469 16.5468 19.4094 12.9999 19.4094ZM19.6718 7.82501C18.8437 7.82501 18.1749 7.15626 18.1749 6.32813C18.1749 5.50001 18.8437 4.83126 19.6718 4.83126C20.4999 4.83126 21.1687 5.50001 21.1687 6.32813C21.1689 6.52477 21.1304 6.71953 21.0552 6.90125C20.9801 7.08297 20.8698 7.24809 20.7308 7.38713C20.5917 7.52618 20.4266 7.63643 20.2449 7.71157C20.0632 7.78671 19.8684 7.82525 19.6718 7.82501Z" fill="#F9C922"/>
</svg>
