<svg width="41" height="41" viewBox="0 0 41 41" fill="none" xmlns="http://www.w3.org/2000/svg">
<g clip-path="url(#clip0_425_222)">
<path d="M13.0394 32.4585V15.1694H7.17929V32.4585H13.0394ZM10.1101 12.8074C12.1536 12.8074 13.4256 11.4798 13.4256 9.82073C13.3875 8.12425 12.1537 6.8335 10.1489 6.8335C8.14437 6.8335 6.83354 8.12428 6.83354 9.82073C6.83354 11.4799 8.10522 12.8074 10.0718 12.8074H10.1099H10.1101ZM16.2829 32.4585H22.143V22.8034C22.143 22.2867 22.1811 21.7705 22.3359 21.4011C22.7595 20.3687 23.7237 19.2994 25.3425 19.2994C27.463 19.2994 28.3114 20.8849 28.3114 23.2091V32.4584H34.1711V22.545C34.1711 17.2344 31.28 14.7635 27.4245 14.7635C24.2632 14.7635 22.8752 16.4963 22.104 17.6765H22.1432V15.169H16.2831C16.36 16.7913 16.2831 32.4582 16.2831 32.4582L16.2829 32.4585Z" fill="#F9C922"/>
</g>
<defs>
<clipPath id="clip0_425_222">
<rect width="27.3333" height="25.625" fill="white" transform="translate(6.83354 6.8335)"/>
</clipPath>
</defs>
</svg>
