<svg width="20" height="32" viewBox="0 0 20 32" fill="none" xmlns="http://www.w3.org/2000/svg">
<path d="M0 10C0 7.34784 1.05357 4.8043 2.92893 2.92893C4.8043 1.05357 7.34784 0 10 0C12.6522 0 15.1957 1.05357 17.0711 2.92893C18.9464 4.8043 20 7.34784 20 10V22C20 24.6522 18.9464 27.1957 17.0711 29.0711C15.1957 30.9464 12.6522 32 10 32C7.34784 32 4.8043 30.9464 2.92893 29.0711C1.05357 27.1957 0 24.6522 0 22V10ZM11 7C11 6.73478 10.8946 6.48043 10.7071 6.29289C10.5196 6.10536 10.2652 6 10 6C9.73478 6 9.48043 6.10536 9.29289 6.29289C9.10536 6.48043 9 6.73478 9 7V11C9 11.2652 9.10536 11.5196 9.29289 11.7071C9.48043 11.8946 9.73478 12 10 12C10.2652 12 10.5196 11.8946 10.7071 11.7071C10.8946 11.5196 11 11.2652 11 11V7Z" fill="#F9C922"/>
</svg>
