<svg width="46" height="37" viewBox="0 0 46 37" fill="none" xmlns="http://www.w3.org/2000/svg">
<path d="M20.7423 3.79099C15.797 7.38405 11.6733 13.1963 11.2885 13.7448L4.89725 9.18881L16.3072 1.86485L20.7423 3.79099ZM20.0747 25.3716C20.0747 25.3716 28.0163 23.9417 33.1163 20.668C45.9258 12.4457 45.9655 3.84544 45.8043 1.87225C44.0817 0.884536 36.2417 -2.64102 23.4323 5.5813C18.3322 8.85501 13.7253 15.4799 13.7253 15.4799L20.0747 25.3716ZM33.624 23.8592C28.298 26.8592 21.2964 28.1881 20.6375 28.3096L22.1184 36.0175L33.5284 28.6936L33.624 23.8592ZM15.4241 26.3974C15.0716 28.0137 14.091 29.3298 12.81 30.1521C10.0109 31.9488 0.093492 31.2138 0.093492 31.2138C0.093492 31.2138 3.55486 21.891 6.35396 20.0943C7.34833 19.4523 8.51103 19.1203 9.69444 19.1405C10.8778 19.1606 12.0286 19.532 13.0005 20.2074C13.9724 20.8828 14.7217 21.8319 15.1533 22.934C15.5848 24.0361 15.6791 25.2416 15.4241 26.3974ZM27.0363 10.5698C27.5035 8.42769 29.6384 7.0573 31.7806 7.52451C33.9227 7.99172 35.2931 10.1266 34.8259 12.2688C34.3587 14.4109 32.2237 15.7813 30.0816 15.3141C27.9395 14.8468 26.5691 12.7119 27.0363 10.5698Z" fill="#F9C922"/>
</svg>
